<?xml version="1.0"?>
<svg xmlns="http://www.w3.org/2000/svg" viewBox="0 0 26 26">
    <path d="M 4.1875 0 C 3.5875 0 3.1875 0.4 3.1875 1 L 3.1875 25 C 3.1875 25.6 3.5875 26 4.1875 26 L 16.1875 26 C 16.7875 26 17.1875 25.6 17.1875 25 L 17.1875 21.59375 C 16.4875 21.39375 15.7875 21.2125 15.1875 20.8125 L 15.1875 24 L 5.1875 24 L 5.1875 2 L 15.1875 2 L 15.1875 5.1875 C 15.7875 4.8875 16.4875 4.6 17.1875 4.5 L 17.1875 1 C 17.1875 0.4 16.7875 0 16.1875 0 L 4.1875 0 z M 19.1875 6.1875 C 15.3875 6.1875 12.40625 9.2 12.40625 13 C 12.40625 16.8 15.4875 19.8125 19.1875 19.8125 C 22.8875 19.8125 26 16.7 26 13 C 26 9.3 22.9875 6.1875 19.1875 6.1875 z M 18.1875 9 L 20.1875 9 L 20.1875 12 L 23.1875 12 L 23.1875 14 L 20.1875 14 L 20.1875 17 L 18.1875 17 L 18.1875 14 L 15.1875 14 L 15.1875 12 L 18.1875 12 L 18.1875 9 z"/>
</svg>
