<?xml version="1.0"?>
<svg xmlns="http://www.w3.org/2000/svg" viewBox="0 0 26 26">
    <path d="M 1 3.1875 C 0.4 3.1875 0 3.5875 0 4.1875 L 0 16.1875 C 0 16.7875 0.4 17.1875 1 17.1875 L 4.40625 17.1875 C 4.60625 16.4875 4.79375 15.7875 5.09375 15.1875 L 2 15.1875 L 2 5.1875 L 24 5.1875 L 24 15.1875 L 20.8125 15.1875 C 21.1125 15.7875 21.4 16.4875 21.5 17.1875 L 25 17.1875 C 25.6 17.1875 26 16.7875 26 16.1875 L 26 4.1875 C 26 3.5875 25.6 3.1875 25 3.1875 L 1 3.1875 z M 13 12.40625 C 9.2 12.40625 6.1875 15.4875 6.1875 19.1875 C 6.1875 22.8875 9.2 26 13 26 C 16.8 26 19.8125 22.8875 19.8125 19.1875 C 19.8125 15.4875 16.8 12.40625 13 12.40625 z M 12 15.1875 L 14 15.1875 L 14 18.1875 L 17 18.1875 L 17 20.1875 L 14 20.1875 L 14 23.1875 L 12 23.1875 L 12 20.1875 L 9 20.1875 L 9 18.1875 L 12 18.1875 L 12 15.1875 z"/>
</svg>
